<svg width="40" height="48" fill="none" xmlns="http://www.w3.org/2000/svg">
    <path d="M38.987.603v45.925c-.61.204-.874.485-1.395.485-.06.05-.114.103-.162.157V1.941c0-.434.324-1.123 1.557-1.338Z" fill="#C4C4C4" />
    <path d="M37.754 1.38v45.497" stroke="#858484" stroke-width=".2" />
    <path d="M38.128.256v46.62M38.502.256v46.62" stroke="#858484" stroke-width=".202" />
    <path d="M37.131 2.253a.25.25 0 0 1 .25.25v44.935a.25.25 0 0 1-.25.25H1a.25.25 0 0 1-.25-.25V2.503a.25.25 0 0 1 .25-.25h36.131Z" fill="#3A288E" stroke="#15045B" stroke-width=".5" stroke-linejoin="round" />
    <path d="M36.82 2.222c0-.467.77-1.34 1.557-1.966H2.246c-.148 0-.935.221-.935 1.966H36.82Z" fill="#C4C4C4" />
    <path fill-rule="evenodd" clip-rule="evenodd" d="M1.623.918 38.066.92V.718L1.623.716v.202Zm35.508.562H1V1.28h36.131v.202Zm0 .562H1V1.84h36.131v.202Z" fill="#858484" />
    <path d="M1 2.503C1 .706 1.83.256 2.246.256H39c-1.495.45-1.869 1.685-1.869 2.247M39 0v46.877c-1.495 0-1.869.748-1.869 1.123" stroke="#15045B" stroke-width=".5" />
    <path d="m21.849 15.367-.088 5.078-.49-.012.089-5.078.489.012ZM18.518 20.585l-.366-5.065-.489.032.366 5.064.489-.031ZM14.372 15.8l1.004 4.97-.482.093-1.005-4.97.483-.093ZM12.558 21.635l-2.104-4.58-.45.205 2.103 4.58.45-.205ZM6.81 19.125l2.78 4.168-.414.276-2.78-4.168.414-.276ZM3.93 21.058l3.115 3.901-.391.312-3.115-3.901.39-.312ZM24.975 21.266l1.127-5.349-.479-.104-1.126 5.349.478.104ZM30.052 17.92l-1.818 4.711-.457-.179 1.817-4.711.457.179ZM30.582 24.477l2.35-4.448-.434-.232-2.35 4.447.434.233Z" fill="#000" />
    <path d="M24.578 21.115c-4.841-1.685-11.605-1.701-19.311 4.998 7.706 6.698 14.47 6.682 19.311 4.997 2.437-.848 4.391-2.12 5.737-3.18a19.329 19.329 0 0 0 1.543-1.352c.176-.172.31-.31.399-.406l.037-.04.018-.02a7.415 7.415 0 0 0-.055-.058c-.09-.096-.223-.235-.399-.407a19.326 19.326 0 0 0-1.543-1.351c-1.346-1.06-3.3-2.333-5.737-3.181Z" fill="#C4C4C4" />
    <path d="M24.915 26.026c0 3.232-2.51 5.852-5.607 5.852-3.096 0-5.606-2.62-5.606-5.852s2.51-5.853 5.606-5.853c3.097 0 5.607 2.62 5.607 5.853Z" fill="#23D71F" />
    <path d="M21.8 25.766c0 1.436-1.116 2.6-2.492 2.6s-2.492-1.164-2.492-2.6c0-1.437 1.116-2.601 2.492-2.601s2.492 1.164 2.492 2.6Z" fill="#090A09" />
    <path d="M20.554 24.79c0 .539-.418.976-.934.976s-.935-.437-.935-.976c0-.538.419-.975.935-.975s.934.437.934.975Z" fill="#fff" />
    <path fill-rule="evenodd" clip-rule="evenodd" d="m5.06 26.113-.08-.1c7.821-6.858 14.719-6.866 19.665-5.145 2.469.86 4.447 2.148 5.808 3.22.68.537 1.207 1.02 1.564 1.37a13.537 13.537 0 0 1 .51.527l.026.03.007.007.002.003-.092.088.093.087-.003.003-.007.008-.026.03a13.537 13.537 0 0 1-.51.527c-.357.349-.884.832-1.564 1.369-1.36 1.073-3.339 2.36-5.808 3.22-4.946 1.72-11.844 1.713-19.665-5.145l.08-.1Zm.195 0c7.705-6.699 14.47-6.683 19.311-4.998 2.437.848 4.391 2.12 5.736 3.181.673.53 1.193 1.007 1.544 1.351a13.122 13.122 0 0 1 .453.466 13.122 13.122 0 0 1-.453.465c-.351.344-.871.82-1.543 1.351-1.346 1.061-3.3 2.333-5.737 3.181-4.841 1.685-11.606 1.701-19.311-4.997Z" fill="#858484" />
    <path d="M26.662 23.689c2.446.686 4.469 1.618 5.86 2.544l.11-.167c-.29-.193-.607-.386-.95-.578-.226-.428-1.05-1.178-1.675-1.488-1.346-1.06-3.004-2.037-5.44-2.885-4.626-1.817-12.537-1.616-18.533 4.35-.368.19-.736.388-1.103.598l.099.174a27.605 27.605 0 0 1 3.504-1.685c6.812-2.248 13.302-2.026 18.128-.863Z" fill="#858484" />
</svg>