<svg width="245" height="64" viewBox="0 0 245 64" fill="none" xmlns="http://www.w3.org/2000/svg">
<path data-role="text" d="M84.1439 46C84.0261 46.0707 83.6845 46.1649 83.1192 46.2827C82.5539 46.424 82.0238 46.4947 81.5292 46.4947C81.0345 46.4947 80.7871 46.318 80.7871 45.9647C80.4574 44.5749 80.0098 42.0779 79.4444 38.4738C78.9027 34.8462 78.514 32.361 78.2784 31.0183C77.6188 32.5259 76.7708 34.4339 75.7344 36.7424C73.4259 41.8541 72.0714 44.94 71.6709 46C71.5531 46.0707 71.2116 46.1649 70.6462 46.2827C70.0809 46.424 69.5509 46.4947 69.0562 46.4947C68.5615 46.4947 68.3142 46.318 68.3142 45.9647C67.9608 44.4806 67.4662 41.6186 66.8301 37.3785C66.1941 33.1384 65.5346 29.2869 64.8514 25.8242C64.1683 22.3614 63.4616 20.0647 62.7314 18.934C63.7207 18.3216 64.5452 18.0153 65.2048 18.0153C66.4768 18.0153 67.3248 18.7691 67.7488 20.2767C68.1728 21.7607 68.7853 25.8124 69.5862 32.4317C69.6333 32.785 69.8571 34.3162 70.2576 37.0251C70.658 39.7341 70.9171 41.5361 71.0349 42.4312C73.5319 35.8826 75.5812 30.0761 77.1831 25.0115C76.5235 22.0199 75.8639 19.994 75.2043 18.934C76.1937 18.3216 77.0182 18.0153 77.6777 18.0153C78.9498 18.0153 79.7978 18.7691 80.2218 20.2767C80.6458 21.7607 81.2583 25.8124 82.0592 32.4317C82.1063 32.785 82.3301 34.3162 82.7305 37.0251C83.131 39.7341 83.3901 41.5361 83.5079 42.4312C88.6902 28.6509 91.3638 20.3356 91.5287 17.4853C92.5416 17.7209 93.3426 18.0624 93.9315 18.51C94.5204 18.934 94.8148 19.4169 94.8148 19.9587C94.8148 21.4899 92.4003 27.5791 87.5713 38.2265C85.6633 42.3959 84.5208 44.9871 84.1439 46ZM102.956 46.53C101.613 46.0589 100.671 45.3404 100.129 44.3746C99.6108 43.3853 99.3517 42.1957 99.3517 40.8059C99.3517 39.4161 99.5401 37.4256 99.917 34.8344C100.294 32.2432 100.482 30.2292 100.482 28.7923C100.482 27.3553 100.412 26.2482 100.27 25.4708C100.694 25.4237 101.036 25.4002 101.295 25.4002C102.355 25.4002 103.121 25.6357 103.592 26.1069C104.063 26.578 104.298 27.3553 104.298 28.4389C104.298 28.7923 104.004 30.6532 103.415 34.0217C102.85 37.3667 102.555 40.1345 102.532 42.3252C102.532 44.4924 102.673 45.894 102.956 46.53ZM103.486 21.9021C101.507 21.9021 100.518 21.2307 100.518 19.888C100.518 19.4169 100.694 18.7573 101.048 17.9093C101.566 17.8151 102.014 17.768 102.39 17.768C104.369 17.768 105.358 18.4393 105.358 19.782C105.358 20.2532 105.182 20.9127 104.828 21.7607C104.31 21.855 103.863 21.9021 103.486 21.9021ZM117.1 27.3436C116.322 27.3436 115.616 27.5909 114.98 28.0856C114.367 28.5802 114.061 29.2634 114.061 30.135C114.061 30.983 114.344 31.7839 114.909 32.5377C115.498 33.2915 116.205 33.9628 117.029 34.5517C117.853 35.1406 118.69 35.7413 119.538 36.3538C121.516 37.8142 122.506 39.3807 122.506 41.0532C122.506 42.7257 121.834 44.092 120.492 45.152C119.149 46.1884 117.429 46.7067 115.333 46.7067C113.26 46.7067 111.646 46.2945 110.492 45.47C109.361 44.6455 108.796 43.6797 108.796 42.5726C108.796 41.4419 109.079 40.5585 109.644 39.9225C110.209 39.2865 110.893 38.9685 111.694 38.9685C112.118 38.9685 112.518 39.0627 112.895 39.2512C112.377 39.9107 112.118 40.6881 112.118 41.5832C112.118 42.4784 112.388 43.2322 112.93 43.8446C113.496 44.4571 114.261 44.7633 115.227 44.7633C116.216 44.7633 117.053 44.516 117.736 44.0213C118.419 43.5031 118.76 42.8553 118.76 42.0779C118.76 41.3006 118.56 40.6174 118.16 40.0285C117.759 39.4396 117.253 38.9332 116.64 38.5092C116.051 38.0851 115.404 37.614 114.697 37.0958C113.99 36.5776 113.331 36.0711 112.718 35.5764C112.129 35.0582 111.635 34.4222 111.234 33.6684C110.834 32.891 110.633 32.043 110.633 31.1243C110.633 29.4518 111.27 28.0856 112.542 27.0255C113.814 25.942 115.415 25.4002 117.347 25.4002C119.279 25.4002 120.692 25.8006 121.587 26.6015C122.482 27.4024 122.93 28.3094 122.93 29.3223C122.93 30.3116 122.682 31.1361 122.188 31.7957C121.693 32.4317 121.057 32.7497 120.28 32.7497C119.903 32.7497 119.467 32.6437 118.972 32.4317C119.585 31.6779 119.891 30.8652 119.891 29.9936C119.891 29.122 119.62 28.4625 119.078 28.0149C118.56 27.5673 117.901 27.3436 117.1 27.3436ZM136.602 27.4496C135.189 27.4496 133.988 28.2622 132.998 29.8876C132.033 31.513 131.385 33.421 131.055 35.6118H132.044C133.293 35.6118 134.376 35.4351 135.295 35.0817C136.214 34.7284 136.92 34.2691 137.415 33.7037C138.357 32.6201 138.829 31.3952 138.829 30.0289C138.829 29.2516 138.64 28.6274 138.263 28.1562C137.91 27.6851 137.356 27.4496 136.602 27.4496ZM141.585 41.7599C140.501 43.5266 139.311 44.7633 138.016 45.47C136.72 46.1767 135.213 46.53 133.493 46.53C131.797 46.53 130.313 45.7762 129.041 44.2686C127.769 42.761 127.133 40.641 127.133 37.9085C127.133 34.7991 127.969 32.0194 129.642 29.5696C130.466 28.3918 131.538 27.4378 132.857 26.7075C134.2 25.9773 135.672 25.6122 137.274 25.6122C140.807 25.6122 142.574 27.32 142.574 30.7356C142.574 32.785 141.773 34.3986 140.171 35.5764C138.593 36.7307 136.756 37.3078 134.659 37.3078C133.269 37.3078 132.021 37.1782 130.914 36.9191C130.89 37.1547 130.878 37.5198 130.878 38.0145C130.878 42.1839 132.115 44.2686 134.588 44.2686C136.92 44.2686 138.817 43.1144 140.277 40.8059C141.149 40.9237 141.585 41.2417 141.585 41.7599ZM147.944 38.8978C148.439 35.5764 148.816 32.3846 149.075 29.3223C149.358 26.26 149.499 23.4803 149.499 20.9834C149.499 18.4864 149.334 16.8493 149.004 16.0719C150.96 16.7315 152.185 17.768 152.679 19.1814C154.517 18.1684 156.401 17.662 158.333 17.662C160.264 17.662 161.949 18.192 163.385 19.252C164.846 20.312 165.564 21.7372 165.541 23.5275C165.541 25.3177 164.964 26.8724 163.81 28.1916C162.655 29.5107 161.018 30.5236 158.898 31.2303C160.547 31.5837 162.043 32.3846 163.385 33.633C164.728 34.858 165.4 36.3773 165.4 38.1911C165.4 40.9708 164.422 43.1144 162.467 44.622C160.535 46.106 158.097 46.848 155.153 46.848C152.232 46.848 149.57 45.9411 147.167 44.1273C147.191 43.9388 147.45 42.1957 147.944 38.8978ZM161.937 24.6228C161.937 23.3037 161.513 22.2554 160.665 21.4781C159.817 20.6772 158.662 20.2767 157.202 20.2767C155.742 20.2767 154.375 20.5829 153.103 21.1954C153.103 22.6794 152.785 26.3895 152.149 32.3257C151.537 38.2383 151.231 42.0308 151.231 43.7033C152.432 44.1273 153.61 44.3393 154.764 44.3393C156.79 44.3393 158.462 43.7622 159.781 42.6079C161.101 41.4301 161.76 39.8519 161.76 37.8731C161.76 36.3891 161.077 35.0935 159.711 33.9864C158.368 32.8557 156.495 32.2432 154.093 32.149L153.987 30.877C156.484 30.5707 158.427 29.7816 159.817 28.5096C161.23 27.214 161.937 25.9184 161.937 24.6228ZM184.01 34.4104C184.01 32.1019 183.716 30.453 183.127 29.4636C182.562 28.4507 181.737 27.9442 180.654 27.9442C179.594 27.9442 178.522 28.4742 177.438 29.5343C176.355 30.5707 175.495 31.8663 174.859 33.421C174.246 34.9522 173.94 36.554 173.94 38.2265C173.94 39.8754 174.258 41.3123 174.894 42.5372C175.53 43.7386 176.496 44.3393 177.792 44.3393C179.629 44.3393 181.125 43.2557 182.279 41.0885C183.433 38.9214 184.01 36.6953 184.01 34.4104ZM173.764 33.0324C174.659 30.4883 175.86 28.6391 177.368 27.4849C178.899 26.3071 180.442 25.7182 181.996 25.7182C183.575 25.7182 184.882 26.4131 185.918 27.8029C186.955 29.1692 187.473 31.0301 187.473 33.3857C187.473 35.9769 186.979 38.3796 185.989 40.5939C184.882 43.0437 183.28 44.7515 181.184 45.7173C180.053 46.2591 178.805 46.53 177.438 46.53C175.53 46.53 173.858 45.7409 172.421 44.1626C170.984 42.5608 170.265 40.2876 170.265 37.3431C170.265 34.3751 170.901 31.8074 172.173 29.6403C173.446 27.4731 175.177 25.9655 177.368 25.1175C177.839 25.1175 178.074 25.3531 178.074 25.8242C175.742 27.3553 174.305 29.7581 173.764 33.0324ZM205.818 34.4104C205.818 32.1019 205.524 30.453 204.935 29.4636C204.37 28.4507 203.545 27.9442 202.462 27.9442C201.401 27.9442 200.33 28.4742 199.246 29.5343C198.163 30.5707 197.303 31.8663 196.667 33.421C196.054 34.9522 195.748 36.554 195.748 38.2265C195.748 39.8754 196.066 41.3123 196.702 42.5372C197.338 43.7386 198.304 44.3393 199.599 44.3393C201.437 44.3393 202.933 43.2557 204.087 41.0885C205.241 38.9214 205.818 36.6953 205.818 34.4104ZM195.571 33.0324C196.466 30.4883 197.668 28.6391 199.175 27.4849C200.707 26.3071 202.25 25.7182 203.804 25.7182C205.382 25.7182 206.69 26.4131 207.726 27.8029C208.763 29.1692 209.281 31.0301 209.281 33.3857C209.281 35.9769 208.786 38.3796 207.797 40.5939C206.69 43.0437 205.088 44.7515 202.992 45.7173C201.861 46.2591 200.612 46.53 199.246 46.53C197.338 46.53 195.666 45.7409 194.229 44.1626C192.792 42.5608 192.073 40.2876 192.073 37.3431C192.073 34.3751 192.709 31.8074 193.981 29.6403C195.253 27.4731 196.985 25.9655 199.175 25.1175C199.647 25.1175 199.882 25.3531 199.882 25.8242C197.55 27.3553 196.113 29.7581 195.571 33.0324ZM218.404 35.0817C219.134 31.7132 220.194 29.2869 221.584 27.8029C222.974 26.2953 224.328 25.5415 225.647 25.5415C226.966 25.5415 227.991 25.942 228.721 26.7429C229.475 27.5438 229.852 28.6745 229.852 30.135C229.852 31.5719 229.44 32.8675 228.615 34.0217C227.791 35.1524 226.66 35.9886 225.223 36.5304L225.647 37.8378C226.425 40.2641 227.555 42.6668 229.039 45.046C230.523 47.4251 231.725 49.0505 232.644 49.9221C232.008 50.1341 231.395 50.2401 230.806 50.2401C230.241 50.2401 229.664 50.087 229.075 49.7808C228.486 49.4981 227.968 49.1683 227.52 48.7914C227.096 48.4381 226.637 47.8609 226.142 47.06C225.671 46.2827 225.294 45.6231 225.011 45.0813C224.729 44.5395 224.375 43.7151 223.951 42.6079C223.504 41.4537 222.88 39.7105 222.079 37.3785C221.772 37.402 221.325 37.4138 220.736 37.4138C220.595 37.296 220.524 36.9191 220.524 36.2831C221.584 36.2595 222.526 36.0475 223.351 35.6471C224.175 35.2466 224.799 34.7402 225.223 34.1277C226.118 32.8792 226.566 31.619 226.566 30.347C226.566 29.7109 226.413 29.1927 226.107 28.7923C225.824 28.3682 225.4 28.1562 224.835 28.1562C223.845 28.1562 222.844 28.8158 221.831 30.135C220.818 31.4305 219.959 33.2208 219.252 35.5057C218.569 37.7907 218.227 40.1816 218.227 42.6786C218.227 44.0684 218.298 45.1755 218.439 46C217.874 46.0471 217.556 46.0707 217.485 46.0707C216.378 46.0707 215.554 45.8351 215.012 45.364C214.494 44.8929 214.234 44.1626 214.234 43.1733C214.234 42.1604 214.435 40.2287 214.835 37.3785C216.107 28.6156 216.743 21.961 216.743 17.4146C216.743 15.3653 216.602 13.9872 216.319 13.2805C217.685 13.7752 218.639 14.5055 219.181 15.4713C219.747 16.4371 220.029 17.768 220.029 19.464C220.029 20.6418 219.794 23.1152 219.323 26.8842C218.875 30.6532 218.569 33.3857 218.404 35.0817Z" fill="#15045B"/>
<path d="M50.9872 8.60272V54.5278C50.3771 54.7322 50.1131 55.0131 49.592 55.0131C49.5314 55.0637 49.4775 55.1163 49.4298 55.1702V10.4242V9.9413C49.4298 9.50706 49.7541 8.81792 50.9872 8.60272Z" fill="#C4C4C4"/>
<path d="M49.7541 9.37958V54.8766" stroke="#858484" stroke-width="0.2"/>
<path d="M50.1279 8.25623V54.8766" stroke="#858484" stroke-width="0.202454"/>
<path d="M50.5016 8.25623V54.8766" stroke="#858484" stroke-width="0.202454"/>
<path d="M49.1312 10.253C49.2692 10.253 49.3812 10.3649 49.3812 10.503V55.4383C49.3812 55.5764 49.2692 55.6883 49.1312 55.6883H13C12.8619 55.6883 12.75 55.5764 12.75 55.4383V10.503C12.75 10.3649 12.8619 10.253 13 10.253H49.1312Z" fill="#3A288E" stroke="#15045B" stroke-width="0.5" stroke-linejoin="round"/>
<path d="M48.8197 10.2221C48.8197 9.75469 49.5907 8.88287 50.377 8.25623H14.2459C14.0975 8.25623 13.3115 8.47745 13.3115 10.2221H48.8197Z" fill="#C4C4C4"/>
<path fill-rule="evenodd" clip-rule="evenodd" d="M13.6229 8.91781L50.0656 8.91982L50.0656 8.71807L13.623 8.71606L13.6229 8.91781ZM49.1311 9.4805H13V9.27875H49.1311V9.4805ZM49.1311 10.0422H13V9.84044H49.1311V10.0422Z" fill="#858484"/>
<path d="M13 10.503C13 8.70557 13.8306 8.25622 14.2459 8.25622H51C49.5049 8.70557 49.1311 9.94129 49.1311 10.503M51 8V54.8766C49.5049 54.8766 49.1311 55.6255 49.1311 56" stroke="#15045B" stroke-width="0.5"/>
<path d="M33.849 23.3674L33.7611 28.4454L33.2718 28.4331L33.3597 23.355L33.849 23.3674Z" fill="black"/>
<path d="M30.5179 28.5847L30.1521 23.5201L29.6632 23.5516L30.0289 28.6161L30.5179 28.5847Z" fill="black"/>
<path d="M26.3716 23.7997L27.3764 28.7691L26.8943 28.863L25.8894 23.8936L26.3716 23.7997Z" fill="black"/>
<path d="M24.5576 29.6351L22.4544 25.0552L22.0036 25.2598L24.1069 29.8396L24.5576 29.6351Z" fill="black"/>
<path d="M18.8103 27.125L21.5907 31.2929L21.1758 31.5687L18.3955 27.4008L18.8103 27.125Z" fill="black"/>
<path d="M15.9299 29.0578L19.0446 32.9595L18.6539 33.2714L15.5391 29.3697L15.9299 29.0578Z" fill="black"/>
<path d="M36.9753 29.2659L38.1018 23.917L37.6234 23.8127L36.4968 29.1616L36.9753 29.2659Z" fill="black"/>
<path d="M42.0515 25.92L40.2343 30.6314L39.7771 30.4521L41.5943 25.7407L42.0515 25.92Z" fill="black"/>
<path d="M42.5825 32.4766L44.9322 28.0292L44.4975 27.7972L42.1478 32.2445L42.5825 32.4766Z" fill="black"/>
<path d="M36.5785 29.115C31.7368 27.4303 24.9727 27.414 17.267 34.1126C24.9727 40.8112 31.7368 40.7949 36.5785 39.1102C39.0152 38.2623 40.9694 36.9901 42.3148 35.9292C42.9873 35.3989 43.5071 34.9219 43.8584 34.5779C44.034 34.4059 44.1675 34.2672 44.2568 34.1718C44.2703 34.1573 44.2828 34.1439 44.2942 34.1315C44.3003 34.1249 44.3061 34.1186 44.3116 34.1126C44.3005 34.1005 44.2882 34.0872 44.2747 34.0727C44.2689 34.0665 44.263 34.0601 44.2568 34.0535C44.1675 33.9581 44.034 33.8194 43.8584 33.6474C43.5071 33.3034 42.9873 32.8263 42.3148 32.296C40.9694 31.2352 39.0152 29.9629 36.5785 29.115Z" fill="#C4C4C4"/>
<path d="M36.9148 34.0258C36.9148 37.2581 34.4047 39.8784 31.3083 39.8784C28.2119 39.8784 25.7017 37.2581 25.7017 34.0258C25.7017 30.7936 28.2119 28.1733 31.3083 28.1733C34.4047 28.1733 36.9148 30.7936 36.9148 34.0258Z" fill="#23D71F"/>
<path d="M33.8001 33.7657C33.8001 35.2023 32.6845 36.3669 31.3083 36.3669C29.9321 36.3669 28.8165 35.2023 28.8165 33.7657C28.8165 32.3292 29.9321 31.1646 31.3083 31.1646C32.6845 31.1646 33.8001 32.3292 33.8001 33.7657Z" fill="#090A09"/>
<path d="M32.5542 32.7903C32.5542 33.329 32.1358 33.7657 31.6198 33.7657C31.1037 33.7657 30.6853 33.329 30.6853 32.7903C30.6853 32.2516 31.1037 31.8149 31.6198 31.8149C32.1358 31.8149 32.5542 32.2516 32.5542 32.7903Z" fill="white"/>
<path fill-rule="evenodd" clip-rule="evenodd" d="M17.0605 34.1126L16.9804 34.013C24.8011 27.1553 31.699 27.1472 36.645 28.8682C39.114 29.7273 41.0922 31.0155 42.4528 32.0884C43.1332 32.625 43.6598 33.1081 44.0166 33.4576C44.1951 33.6323 44.3311 33.7737 44.4228 33.8716C44.4686 33.9206 44.5034 33.9587 44.5268 33.9848L44.5534 34.0146L44.5602 34.0224L44.562 34.0245C44.5622 34.0246 44.5628 34.0253 44.4704 34.1126C44.5628 34.1998 44.5627 34.1999 44.5625 34.2001L44.5602 34.2027L44.5534 34.2105L44.5268 34.2403C44.5034 34.2664 44.4686 34.3045 44.4228 34.3535C44.3311 34.4514 44.1951 34.5928 44.0166 34.7675C43.6598 35.117 43.1332 35.6001 42.4528 36.1367C41.0922 37.2096 39.114 38.4978 36.645 39.3569C31.699 41.0779 24.8011 41.0698 16.9804 34.2121L17.0605 34.1126ZM17.2547 34.1126C24.9605 27.414 31.7246 27.4303 36.5662 29.115C39.003 29.9628 40.9572 31.2351 42.3026 32.296C42.975 32.8263 43.4949 33.3033 43.8461 33.6473C44.0218 33.8193 44.1552 33.958 44.2445 34.0534C44.2652 34.0755 44.2835 34.0952 44.2994 34.1126C44.2835 34.1299 44.2652 34.1496 44.2445 34.1717C44.1552 34.2671 44.0218 34.4058 43.8461 34.5778C43.4949 34.9218 42.975 35.3989 42.3026 35.9292C40.9572 36.99 39.003 38.2623 36.5662 39.1102C31.7246 40.7948 24.9605 40.8111 17.2547 34.1126Z" fill="#858484"/>
<path d="M38.6624 31.6886C41.1081 32.3748 43.1306 33.307 44.5217 34.2328L44.6325 34.0664C44.3423 33.8732 44.025 33.6798 43.6826 33.4885C43.4561 33.0598 42.6322 32.3099 42.0066 32C40.6612 30.9391 39.0029 29.9628 36.5662 29.1149C31.9406 27.2975 24.0303 27.4992 18.0344 33.4657C17.6659 33.6545 17.298 33.8534 16.9308 34.0627L17.0299 34.2365C18.1926 33.5736 19.3636 33.0159 20.5338 32.5521C27.346 30.3038 33.8363 30.5255 38.6624 31.6886Z" fill="#858484"/>
</svg>
