<svg fill="none" xmlns="http://www.w3.org/2000/svg" viewBox="0 0 297 483">
  <path d="M285.746 13.812c.138 0 .25.1119.25.25v468.076c0 .138-.112.25-.25.25H.50012c-.13806 0-.25-.112-.25-.25V14.062c0-.1381.11194-.25.25-.25H285.746Z" fill="#3A288E" stroke="#3A288E" stroke-width=".5" stroke-linejoin="round"/>
  <path d="M1.00005 14H284.5c0-3.0579.247-5.21021 1.924-7.28008 1.443-1.7806 3.92-3.46667 8.073-5.71992H8.99997c-1.77101 0-3.68479.0178-5.20796 1.54935C2.25666 4.09313 1.00917 7.2933 1.00005 14Z" fill="#D9D9D9"/>
  <path d="M285.5 14v467.642c.002-1.77.066-3.503 1.485-4.733.745-.645 1.822-1.118 3.344-1.432 1.425-.294 3.274-.455 5.671-.475V1.32881c-4.791 2.54252-7.382 4.27169-8.799 6.02068C285.753 9.1361 285.5 10.9838 285.5 14Z" fill="#D9D9D9"/>
  <path d="M293.5 1.99999V475.5h1V1.99999h-1ZM291 475.5V3.49999h1V475.5h-1ZM288.5 4.99999V476h1V4.99999h-1ZM286 7.49999V478.5h1V7.49999h-1ZM3.5 2.99999H293v-1H3.5v1ZM288.5 5.99999H1.5v-1h287v1ZM1 8.99999h285v-1H1v1ZM1 12h284v-1H1v1Z" fill="#858484"/>
  <path d="M1 14.0741C1 7.31686 2.25102 4.09881 3.79201 2.54935c1.52317-1.53154 3.43695-1.54934 5.20796-1.54934H294.497c-4.153 2.25324-6.63 3.93932-8.073 5.71992C284.747 8.78979 284.5 10.9421 284.5 14h1c0-3.0162.253-4.86389 1.701-6.6505 1.417-1.74899 4.008-3.47816 8.799-6.02069V475.002c-2.397.02-4.246.181-5.671.475-1.522.314-2.599.787-3.344 1.432-1.486 1.288-1.486 3.128-1.485 4.984V482h1c0-2.008.03-3.373 1.14-4.335.567-.491 1.459-.913 2.891-1.208 1.429-.295 3.36-.457 5.969-.457h.5V.5h-.377L296.5 0H8.95131C7.22733-.00016 4.91746-.00038 3.08296 1.8442 1.24897 3.68826 0 7.25726 0 14.0741h1Z" fill="#3A288E"/>
</svg>
