<svg fill="none" xmlns="http://www.w3.org/2000/svg" viewBox="0 0 300 500">
  <path fill="#F2EE92" d="M0 0h300v500H0z"/>
  <path d="M0 20h300v-1H0v1ZM0 180h300v-1H0v1ZM300 340H0v-1h300v1ZM0 100h300v-1H0v1ZM300 260H0v-1h300v1ZM0 420h300v-1H0v1ZM300 60H0v-1h300v1ZM0 220h300v-1H0v1ZM300 380H0v-1h300v1ZM0 140h300v-1H0v1ZM300 300H0v-1h300v1ZM0 460h300v-1H0v1ZM300 40H0v-1h300v1ZM0 200h300v-1H0v1ZM300 360H0v-1h300v1ZM0 120h300v-1H0v1ZM300 280H0v-1h300v1ZM0 440h300v-1H0v1ZM300 80H0v-1h300v1ZM0 240h300v-1H0v1ZM300 400H0v-1h300v1ZM0 160h300v-1H0v1ZM300 320H0v-1h300v1ZM0 480h300v-1H0v1Z" fill="#797474"/>
  <path stroke="#F43C3C" d="M23.5 500V.98398"/>
</svg>
