<svg width="18" height="18" fill="none" xmlns="http://www.w3.org/2000/svg">
<path d="M16.995 1.2v15.31c-.257.067-.368.161-.588.161a.595.595 0 0 0-.068.052V1.648c0-.146.136-.375.656-.447Z" fill="#C4C4C4"/>
<path d="M16.213 1.584a.25.25 0 0 1 .25.25v14.979a.25.25 0 0 1-.25.25H1a.25.25 0 0 1-.25-.25V1.834a.25.25 0 0 1 .25-.25h15.213Z" fill="#3A288E" stroke="#3A288E" stroke-width=".5" stroke-linejoin="round"/>
<path d="M16.082 1.74c0-.155.325-.446.656-.655H1.525c-.063 0-.394.074-.394.656h14.951Z" fill="#C4C4C4"/>
<path d="M1 1.834c0-.599.35-.749.525-.749H17c-.63.15-.787.562-.787.75" stroke="#3A288E" stroke-width=".5"/>
<path d="M17 1v15.625c-.63 0-.787.25-.787.375" stroke="#3A288E" stroke-width=".5"/>
<path d="M10.944 7.485C8.98 6.805 6.24 6.799 3.116 9.5c3.124 2.701 5.865 2.695 7.828 2.015a8.113 8.113 0 0 0 2.325-1.282 7.825 7.825 0 0 0 .802-.725l.007-.008a2.095 2.095 0 0 0-.022-.024 7.815 7.815 0 0 0-.787-.709 8.113 8.113 0 0 0-2.325-1.282Z" fill="#C4C4C4"/>
<ellipse cx="8.808" cy="9.465" rx="2.273" ry="2.36" fill="#23D71F"/>
<ellipse cx="8.808" cy="9.36" rx="1.01" ry="1.049" fill="#090A09"/>
<ellipse cx="8.934" cy="8.967" rx=".379" ry=".393" fill="#fff"/>
<path fill-rule="evenodd" clip-rule="evenodd" d="M3.032 9.5 3 9.46c3.17-2.766 5.966-2.769 7.97-2.075 1.002.347 1.803.866 2.355 1.299a7.91 7.91 0 0 1 .798.719l.043.045.01.012.003.004-.036.036.037.035v.001l-.004.004-.01.012-.043.045a7.913 7.913 0 0 1-.799.72 8.216 8.216 0 0 1-2.353 1.298c-2.005.694-4.801.69-7.971-2.075l.032-.04Zm.08 0c3.123-2.701 5.864-2.695 7.827-2.015.988.342 1.78.855 2.325 1.282a7.813 7.813 0 0 1 .81.733 7.824 7.824 0 0 1-.81.733 8.116 8.116 0 0 1-2.325 1.282c-1.963.68-4.704.686-7.828-2.015Z" fill="#858484"/>
</svg>