<svg width="64" height="68" fill="none" xmlns="http://www.w3.org/2000/svg"><path d="M50.987 10.603v45.925c-.61.204-.874.485-1.395.485-.06.05-.114.103-.162.157V11.941c0-.434.324-1.123 1.557-1.338Z" fill="#C4C4C4"/><path d="M49.754 11.38v45.497" stroke="#858484" stroke-width=".2"/><path d="M50.128 10.256v46.62M50.502 10.256v46.62" stroke="#858484" stroke-width=".202"/><path d="M49.131 12.253a.25.25 0 0 1 .25.25v44.935a.25.25 0 0 1-.25.25H13a.25.25 0 0 1-.25-.25V12.503a.25.25 0 0 1 .25-.25h36.131Z" fill="#3A288E" stroke="#15045B" stroke-width=".5" stroke-linejoin="round"/><path d="M48.82 12.222c0-.467.77-1.34 1.557-1.966H14.246c-.149 0-.934.221-.934 1.966H48.82Z" fill="#C4C4C4"/><path fill-rule="evenodd" clip-rule="evenodd" d="m13.623 10.918 36.443.002v-.202l-36.443-.002v.202Zm35.508.563H13v-.202h36.131v.201Zm0 .561H13v-.202h36.131v.202Z" fill="#858484"/><path d="M13 12.503c0-1.797.83-2.247 1.246-2.247H51c-1.495.45-1.869 1.685-1.869 2.247M51 10v46.877c-1.495 0-1.869.748-1.869 1.123" stroke="#15045B" stroke-width=".5"/><path d="m33.849 25.367-.088 5.078-.49-.012.089-5.078.489.012ZM30.518 30.585l-.366-5.065-.489.032.366 5.064.489-.031ZM26.372 25.8l1.004 4.97-.482.093-1.005-4.97.483-.093ZM24.558 31.635l-2.104-4.58-.45.205 2.103 4.58.45-.205ZM18.81 29.125l2.78 4.168-.414.276-2.78-4.168.414-.276ZM15.93 31.058l3.115 3.901-.391.312-3.115-3.901.39-.312ZM36.975 31.266l1.127-5.349-.479-.104-1.126 5.349.478.104ZM42.051 27.92l-1.817 4.711-.457-.179 1.817-4.711.457.179ZM42.583 34.477l2.35-4.448-.435-.232-2.35 4.448.434.232Z" fill="#000"/><path d="M36.578 31.115c-4.841-1.685-11.605-1.701-19.311 4.998 7.706 6.698 14.47 6.682 19.311 4.997 2.437-.848 4.391-2.12 5.737-3.18a19.31 19.31 0 0 0 1.543-1.352 12.99 12.99 0 0 0 .454-.465 7.415 7.415 0 0 0-.055-.06 12.99 12.99 0 0 0-.399-.406 19.31 19.31 0 0 0-1.543-1.351c-1.346-1.06-3.3-2.333-5.737-3.181Z" fill="#C4C4C4"/><path d="M36.915 36.026c0 3.232-2.51 5.852-5.607 5.852-3.096 0-5.606-2.62-5.606-5.852s2.51-5.853 5.606-5.853c3.097 0 5.607 2.62 5.607 5.853Z" fill="#23D71F"/><path d="M33.8 35.766c0 1.436-1.116 2.6-2.492 2.6s-2.492-1.164-2.492-2.6c0-1.437 1.116-2.601 2.492-2.601s2.492 1.164 2.492 2.6Z" fill="#090A09"/><path d="M32.554 34.79c0 .539-.418.976-.934.976s-.935-.437-.935-.976c0-.538.419-.975.935-.975s.934.437.934.975Z" fill="#fff"/><path fill-rule="evenodd" clip-rule="evenodd" d="m17.06 36.113-.08-.1c7.821-6.858 14.719-6.866 19.665-5.145 2.469.86 4.447 2.148 5.808 3.22.68.537 1.207 1.02 1.564 1.37a13.392 13.392 0 0 1 .51.527l.026.03.007.007.002.003-.092.088.093.087-.003.003-.007.008-.026.03a13.392 13.392 0 0 1-.51.527c-.357.349-.884.832-1.564 1.369-1.36 1.073-3.339 2.36-5.808 3.22-4.946 1.72-11.844 1.713-19.665-5.145l.08-.1Zm.195 0c7.705-6.699 14.47-6.683 19.311-4.998 2.437.848 4.391 2.12 5.736 3.181.673.53 1.193 1.007 1.544 1.351a13.24 13.24 0 0 1 .453.466 13.24 13.24 0 0 1-.453.465c-.351.344-.871.82-1.543 1.351-1.346 1.061-3.3 2.333-5.737 3.181-4.841 1.685-11.606 1.701-19.311-4.997Z" fill="#858484"/><path d="M38.662 33.689c2.446.686 4.469 1.618 5.86 2.544l.11-.167c-.29-.193-.607-.386-.95-.578-.226-.428-1.05-1.178-1.675-1.488-1.346-1.06-3.004-2.037-5.44-2.885-4.626-1.817-12.537-1.616-18.533 4.35-.368.19-.736.388-1.103.598l.099.173a27.605 27.605 0 0 1 3.504-1.684c6.812-2.248 13.302-2.026 18.128-.863Z" fill="#858484"/><path d="m48.102 59.485.177.177.177-.177 8.254-8.254.179-.179-.18-.176-1.343-1.313-.176-.173-.175.175-6.736 6.736-3.323-3.324-.177-.176-.177.176-1.312 1.313-.176.176.175.177 4.813 4.842Zm-2.722 5.493c1.452.626 2.993.939 4.62.939a11.61 11.61 0 0 0 4.649-.94 11.91 11.91 0 0 0 3.783-2.561 12.211 12.211 0 0 0 2.545-3.796c.627-1.452.94-2.993.94-4.62 0-1.646-.313-3.197-.94-4.649a12.03 12.03 0 0 0-2.546-3.782 12.028 12.028 0 0 0-3.782-2.546 11.61 11.61 0 0 0-4.649-.94c-1.627 0-3.168.313-4.62.94a12.209 12.209 0 0 0-3.796 2.545 11.908 11.908 0 0 0-2.562 3.783A11.612 11.612 0 0 0 38.084 54c0 1.627.313 3.168.94 4.62a12.087 12.087 0 0 0 2.56 3.796 12.085 12.085 0 0 0 3.797 2.562Zm11.472-4.14c-1.877 1.887-4.156 2.829-6.852 2.829-2.675 0-4.95-.942-6.838-2.83-1.887-1.887-2.829-4.162-2.829-6.837 0-2.696.942-4.974 2.829-6.852 1.887-1.878 4.162-2.815 6.838-2.815 2.696 0 4.975.937 6.852 2.815 1.878 1.877 2.815 4.156 2.815 6.852 0 2.676-.937 4.95-2.815 6.838Z" fill="#28D824" stroke="#15045B" stroke-width=".5"/></svg>